# xmcd CD database file generated by OrangeCD 5.0
#
# Track frame offsets:
#	151
#	22082
#	41837
#	60388
#	81951
#	100648
#	123535
#	148084
#
# Disc length: 2300 seconds
#
# Revision: 0
# Processed by: cddbd v1.4PL0 Copyright (c) Steve Scherf et al.
# Submitted via: OrangeCD 5.0
#
DISCID=6b08fa08
DTITLE=Cool John Ferguson - Guitar Heaven
DYEAR=2003
DGENRE=Blues
TTITLE0=16 Years
TTITLE1=Low Country Blues
TTITLE2=Song For Brenda
TTITLE3=Chunk Of Funk
TTITLE4=Which Way Is Up
TTITLE5=It's True
TTITLE6=Having Fun
TTITLE7=Keep It Confidential
EXTD=
EXTT0=
EXTT1=
EXTT2=
EXTT3=
EXTT4=
EXTT5=
EXTT6=
EXTT7=
PLAYORDER=
